<svg xmlns="http://www.w3.org/2000/svg" width="30" height="30" viewBox="0 0 30 30">
  <g id="Layer_x0020_1" transform="translate(-0.252 -0.252)">
    <rect id="Rectangle_4098" data-name="Rectangle 4098" width="30" height="30" transform="translate(0.252 0.252)" fill="none"/>
    <g id="_2419820813232" transform="translate(2.635 2.635)">
      <circle id="Ellipse_265" data-name="Ellipse 265" cx="12.617" cy="12.617" r="12.617" fill="#fff"/>
      <g id="Group_87" data-name="Group 87" transform="translate(2.442 2.442)">
        <path id="Path_5520" data-name="Path 5520" d="M1256.223,1258.551l3.952-3.952,3.952,3.956,2.3-2.3-6.251-6.255-6.251,6.251,2.3,2.3Zm-6.223,1.624,2.3-2.3,2.3,2.3-2.3,2.3Zm6.223,1.624,3.952,3.952,3.952-3.956,2.3,2.3h0l-6.255,6.256-6.251-6.251,0,0,2.3-2.3Zm9.528-1.624,2.3-2.3,2.3,2.3-2.3,2.3Z" transform="translate(-1250 -1250)"/>
      </g>
      <g id="Group_88" data-name="Group 88" transform="translate(10.045 10.045)">
        <path id="Path_5521" data-name="Path 5521" d="M3123.136,3120.573h0l-2.564-2.573-1.9,1.9h0l-.22.22-.451.452,0,0,0,0,2.564,2.564,2.568-2.568h0Zm0,0Z" transform="translate(-3118 -3118)"/>
      </g>
    </g>
  </g>
</svg>
