<svg xmlns="http://www.w3.org/2000/svg" width="18" height="18" viewBox="0 0 18 18">
  <g id="vuesax_linear_document-copy" data-name="vuesax/linear/document-copy" transform="translate(-684 -188)">
    <path id="Vector" d="M11.25,4.8V7.05c0,3-1.2,4.2-4.2,4.2H4.2c-3,0-4.2-1.2-4.2-4.2V4.2C0,1.2,1.2,0,4.2,0H6.45" transform="translate(685.5 193.25)" fill="none" stroke="#30d158" stroke-linecap="round" stroke-linejoin="round" stroke-width="1.5"/>
    <path id="Vector-2" data-name="Vector" d="M4.8,4.8H2.4C.6,4.8,0,4.2,0,2.4V0Z" transform="translate(691.95 193.25)" fill="none" stroke="#30d158" stroke-linecap="round" stroke-linejoin="round" stroke-width="1.5"/>
    <path id="Vector-3" data-name="Vector" d="M0,0H3" transform="translate(692.7 189.5)" fill="none" stroke="#30d158" stroke-linecap="round" stroke-linejoin="round" stroke-width="1.5"/>
    <path id="Vector-4" data-name="Vector" d="M0,2.25A2.247,2.247,0,0,1,2.25,0H4.215" transform="translate(689.25 189.5)" fill="none" stroke="#30d158" stroke-linecap="round" stroke-linejoin="round" stroke-width="1.5"/>
    <path id="Vector-5" data-name="Vector" d="M2.107,0V4.642A2.109,2.109,0,0,1,0,6.75" transform="translate(698.393 194)" fill="none" stroke="#30d158" stroke-linecap="round" stroke-linejoin="round" stroke-width="1.5"/>
    <path id="Vector-6" data-name="Vector" d="M4.5,4.5H2.25C.563,4.5,0,3.938,0,2.25V0Z" transform="translate(696 189.5)" fill="none" stroke="#30d158" stroke-linecap="round" stroke-linejoin="round" stroke-width="1.5"/>
    <path id="Vector-7" data-name="Vector" d="M0,0H18V18H0Z" transform="translate(684 188)" fill="none" opacity="0"/>
  </g>
</svg>
