<svg xmlns="http://www.w3.org/2000/svg" width="30" height="30" viewBox="0 0 30 30">
  <g id="discord" transform="translate(2404 7627)">
    <g id="Ellipse_4" data-name="Ellipse 4" transform="translate(-2404 -7627)" fill="none" stroke="#5994f0" stroke-width="1" opacity="0.2">
      <circle cx="15" cy="15" r="15" stroke="none"/>
      <circle cx="15" cy="15" r="14.5" fill="none"/>
    </g>
    <path id="_8666257_discord_icon" data-name="8666257_discord_icon" d="M37.87,32.9a.036.036,0,0,0-.018-.017A11.549,11.549,0,0,0,35,32a.043.043,0,0,0-.046.022,8.035,8.035,0,0,0-.355.729,10.663,10.663,0,0,0-3.2,0,7.37,7.37,0,0,0-.36-.729A.045.045,0,0,0,30.995,32a11.516,11.516,0,0,0-2.85.884.041.041,0,0,0-.019.016,11.807,11.807,0,0,0-2.068,7.965.048.048,0,0,0,.018.033,11.611,11.611,0,0,0,3.5,1.766.045.045,0,0,0,.049-.016,8.29,8.29,0,0,0,.715-1.163.044.044,0,0,0-.024-.062,7.647,7.647,0,0,1-1.092-.52.045.045,0,0,1,0-.074c.073-.055.147-.112.217-.17a.043.043,0,0,1,.045-.006,8.282,8.282,0,0,0,7.036,0,.043.043,0,0,1,.046.006c.07.058.143.116.217.17a.045.045,0,0,1,0,.074,7.177,7.177,0,0,1-1.093.52.045.045,0,0,0-.024.062,9.31,9.31,0,0,0,.715,1.162.044.044,0,0,0,.049.017,11.573,11.573,0,0,0,3.5-1.766.045.045,0,0,0,.018-.032A11.729,11.729,0,0,0,37.87,32.9Zm-7.191,6.375a1.42,1.42,0,0,1,0-2.821,1.42,1.42,0,0,1,0,2.821Zm4.652,0a1.42,1.42,0,0,1,0-2.821,1.42,1.42,0,0,1,0,2.821Z" transform="translate(-2422 -7649)" fill="#fff" opacity="1"/>
  </g>
</svg>
