<?xml version="1.0" encoding="utf-8"?>
<!-- Generator: Adobe Illustrator 26.3.1, SVG Export Plug-In . SVG Version: 6.00 Build 0)  -->
<svg version="1.1" id="Layer_1" xmlns="http://www.w3.org/2000/svg" xmlns:xlink="http://www.w3.org/1999/xlink" x="0px" y="0px"
	 viewBox="0 0 36 36" style="enable-background:new 0 0 36 36;" xml:space="preserve">
<style type="text/css">
	.st0{opacity:0.1;}
	.st1{fill:none;}
	.st2{fill:none;stroke:#FFFFFF;}
	.st3{fill:#FFFFFF;}
</style>
<g id="Group_71" transform="translate(-1012 -562)">
	<g id="Rectangle_4059" transform="translate(1012 562)" class="st0">
		<path class="st1" d="M18,0L18,0c9.9,0,18,8.1,18,18l0,0c0,9.9-8.1,18-18,18l0,0C8.1,36,0,27.9,0,18l0,0C0,8.1,8.1,0,18,0z"/>
		<path class="st2" d="M18,0.5L18,0.5c9.7,0,17.5,7.8,17.5,17.5l0,0c0,9.7-7.8,17.5-17.5,17.5l0,0C8.3,35.5,0.5,27.7,0.5,18l0,0
			C0.5,8.3,8.3,0.5,18,0.5z"/>
	</g>
</g>
<g id="Layer_2">
	<g id="XMLID_801_">
		<path id="XMLID_802_" class="st3" d="M14.2,15.6h-2.7c-0.1,0-0.2,0.1-0.2,0.2v8.8c0,0.1,0.1,0.2,0.2,0.2h2.7
			c0.1,0,0.2-0.1,0.2-0.2v-8.8C14.4,15.7,14.3,15.6,14.2,15.6z"/>
		<path id="XMLID_803_" class="st3" d="M12.8,11.2c-1,0-1.8,0.8-1.8,1.8c0,1,0.8,1.8,1.8,1.8c1,0,1.8-0.8,1.8-1.8
			C14.6,12,13.8,11.2,12.8,11.2z"/>
		<path id="XMLID_804_" class="st3" d="M21.2,15.3c-1.1,0-1.9,0.5-2.4,1v-0.6c0-0.1-0.1-0.2-0.2-0.2h-2.6c-0.1,0-0.2,0.1-0.2,0.2
			v8.8c0,0.1,0.1,0.2,0.2,0.2h2.7c0.1,0,0.2-0.1,0.2-0.2v-4.4c0-1.5,0.4-2,1.4-2c1.1,0,1.2,0.9,1.2,2.1v4.3c0,0.1,0.1,0.2,0.2,0.2
			h2.7c0.1,0,0.2-0.1,0.2-0.2v-4.8C24.7,17.6,24.2,15.3,21.2,15.3z"/>
	</g>
</g>
</svg>
