<svg xmlns="http://www.w3.org/2000/svg" width="40" height="40" viewBox="0 0 40 40">
  <g id="vuesax_bold_money-4" data-name="vuesax/bold/money-4" transform="translate(-620 -252)">
    <g id="money-4" transform="translate(620 252)">
      <path id="Vector" d="M0,0H40V40H0Z" fill="none" opacity="0"/>
      <path id="Vector-2" data-name="Vector" d="M25,0H8.333C3.333,0,0,2.5,0,8.333V20c0,5.833,3.333,8.333,8.333,8.333H25c5,0,8.333-2.5,8.333-8.333V8.333C33.333,2.5,30,0,25,0ZM2.917,8.333A5.427,5.427,0,0,1,8.333,2.917h2.5a1.25,1.25,0,0,1,0,2.5h-2.5A2.931,2.931,0,0,0,5.417,8.333v2.5a1.25,1.25,0,1,1-2.5,0Zm7.917,17.083h-2.5A5.427,5.427,0,0,1,2.917,20V17.5a1.25,1.25,0,0,1,2.5,0V20a2.931,2.931,0,0,0,2.917,2.917h2.5a1.25,1.25,0,0,1,0,2.5Zm5.833-6.25a5,5,0,1,1,5-5A4.993,4.993,0,0,1,16.667,19.167ZM30.417,20A5.427,5.427,0,0,1,25,25.417H22.5a1.25,1.25,0,0,1,0-2.5H25A2.931,2.931,0,0,0,27.917,20V17.5a1.25,1.25,0,0,1,2.5,0Zm0-9.167a1.25,1.25,0,0,1-2.5,0v-2.5A2.931,2.931,0,0,0,25,5.417H22.5a1.25,1.25,0,1,1,0-2.5H25a5.427,5.427,0,0,1,5.417,5.417Z" transform="translate(3.333 5.833)" fill="#ffaa28"/>
    </g>
  </g>
</svg>
