<svg xmlns="http://www.w3.org/2000/svg" width="40" height="40" viewBox="0 0 40 40">
  <g id="vuesax_bold_wallet-add" data-name="vuesax/bold/wallet-add" transform="translate(-108 -572)">
    <g id="wallet-add" transform="translate(108 572)">
      <path id="Vector" d="M9.983.34,5.967,9.69H1.95A9.436,9.436,0,0,0,0,9.873l1.667-4,.067-.15.1-.267a2.643,2.643,0,0,1,.133-.3C3.9.673,6.067-.727,9.983.34Z" transform="translate(9.917 3.343)" fill="#ffaa28"/>
      <path id="Vector-2" data-name="Vector" d="M13.517,9.283l-.033-.017a11.145,11.145,0,0,0-3.05-.433H0L3.75.117,3.8,0c.233.083.483.2.733.283l3.683,1.55a11.028,11.028,0,0,1,4.367,2.8c.15.2.283.383.417.6a2.536,2.536,0,0,1,.333.717,2.23,2.23,0,0,1,.15.433A5.841,5.841,0,0,1,13.517,9.283Z" transform="translate(17.7 4.2)" fill="#ffaa28"/>
      <path id="Vector-3" data-name="Vector" d="M26.75.333A8.429,8.429,0,0,0,24.4,0H8.133a7.961,7.961,0,0,0-3.2.65A8.156,8.156,0,0,0,0,8.133v3.25a9.414,9.414,0,0,0,.083,1.183q.55,7.95,8.5,8.483a8.99,8.99,0,0,0,1.183.083h13c6.167,0,9.417-2.933,9.733-8.767.017-.317.033-.65.033-.983V8.133A8.167,8.167,0,0,0,26.75.333ZM20.433,11.45H17.517v3.017a1.25,1.25,0,1,1-2.5,0V11.45H12.1a1.25,1.25,0,0,1,0-2.5h2.917V6.133a1.25,1.25,0,0,1,2.5,0V8.95h2.917a1.25,1.25,0,0,1,0,2.5Z" transform="translate(3.733 15.533)" fill="#ffaa28"/>
      <path id="Vector-4" data-name="Vector" d="M0,0H40V40H0Z" fill="none" opacity="0"/>
    </g>
  </g>
</svg>
