<svg xmlns="http://www.w3.org/2000/svg" width="40" height="40" viewBox="0 0 40 40">
  <g id="vuesax_bold_bag-2" data-name="vuesax/bold/bag-2" transform="translate(-556 -188)">
    <g id="bag-2" transform="translate(556 188)">
      <path id="Vector" d="M28.006,11.6a7.709,7.709,0,0,0-5.133-2.2V8.137a8.151,8.151,0,0,0-8.933-8.1,8.579,8.579,0,0,0-7.333,8.4V9.4a7.709,7.709,0,0,0-5.133,2.2C-.144,13.4-.094,15.8.089,17.471l1.167,9.283c.35,3.25,1.667,6.583,8.833,6.583h9.3c7.167,0,8.483-3.333,8.833-6.567l1.167-9.317C29.572,15.8,29.606,13.4,28.006,11.6ZM14.172,2.354a5.809,5.809,0,0,1,6.383,5.783V9.3H8.922V8.437A6.268,6.268,0,0,1,14.172,2.354Zm-5.4,16.233H8.756a1.675,1.675,0,1,1,.017,0Zm11.667,0h-.017a1.675,1.675,0,1,1,.017,0Z" transform="translate(5.261 3.329)" fill="#ffaa28"/>
      <path id="Vector-2" data-name="Vector" d="M0,0H40V40H0Z" transform="translate(40 40) rotate(180)" fill="none" opacity="0"/>
    </g>
  </g>
</svg>
