<svg xmlns="http://www.w3.org/2000/svg" width="40" height="40" viewBox="0 0 40 40">
  <g id="vuesax_bold_ticket-star" data-name="vuesax/bold/ticket-star" transform="translate(-556 -572)">
    <g id="ticket-star" transform="translate(556 572)">
      <path id="Vector" d="M24.4,0H13.168V5.033a1.167,1.167,0,0,1-2.333,0V0H8.9C2.318,0,.151,1.967,0,8.117a1.131,1.131,0,0,0,.333.833,1.1,1.1,0,0,0,.833.35,4.267,4.267,0,0,1,0,8.533,1.12,1.12,0,0,0-.833.35A1.131,1.131,0,0,0,0,19.017c.15,6.15,2.317,8.117,8.9,8.117h1.933V22.1a1.167,1.167,0,1,1,2.333,0v5.033H24.4c6.833,0,8.917-2.083,8.917-8.917v-9.3C33.318,2.083,31.235,0,24.4,0Zm3.033,13.4-1.55,1.5a.236.236,0,0,0-.067.233l.367,2.117a1.041,1.041,0,0,1-1.5,1.1l-1.917-1a.285.285,0,0,0-.233,0l-1.917,1a.986.986,0,0,1-.483.117,1,1,0,0,1-.6-.2,1.041,1.041,0,0,1-.417-1.017l.367-2.117a.3.3,0,0,0-.067-.233l-1.55-1.5a1.026,1.026,0,0,1-.267-1.05.985.985,0,0,1,.833-.7l2.133-.317a.332.332,0,0,0,.2-.133l.95-1.933a1.043,1.043,0,0,1,.933-.567,1,1,0,0,1,.917.567l.95,1.933a.2.2,0,0,0,.183.133l2.133.317a1.009,1.009,0,0,1,.833.7A.957.957,0,0,1,27.435,13.4Z" transform="translate(3.349 6.433)" fill="#ffaa28"/>
      <path id="Vector-2" data-name="Vector" d="M0,0H40V40H0Z" fill="none" opacity="0"/>
    </g>
  </g>
</svg>
