<?xml version="1.0" encoding="utf-8"?>
<!-- Generator: Adobe Illustrator 26.3.1, SVG Export Plug-In . SVG Version: 6.00 Build 0)  -->
<svg version="1.1" id="Livello_1" xmlns="http://www.w3.org/2000/svg" xmlns:xlink="http://www.w3.org/1999/xlink" x="0px" y="0px"
	 width="1920px" height="1080px" viewBox="0 0 1920 1080" style="enable-background:new 0 0 1920 1080;" xml:space="preserve">
<style type="text/css">
	.st0{fill:#B5B5B5;}
</style>
<g>
	<path class="st0" d="M936.9,540.7c0,47.7,0,95.5,0,143.2c0,15.2-11.1,25.7-26.1,24.9c-11.2-0.6-21.4-10.6-22-21.9
		c-0.1-0.9,0-1.7,0-2.6c0-95.7,0-191.4,0-287.1c0-10.7,5.9-19.5,15.5-23c16-6,32.7,5.4,32.7,22.6
		C936.9,444.8,936.9,492.7,936.9,540.7z"/>
	<path class="st0" d="M1128.9,589.1c0,31.9,0,63.7,0,95.6c0,10.2-6,18.9-15.2,22.5c-9.5,3.7-19.9,1.3-26.8-6.1
		c-4-4.4-6.3-9.6-6.3-15.6c0-64.5,0-128.9,0-193.4c0-13.1,10.9-23.4,24.3-23.4c13.1,0,23.8,10.4,23.9,23.4
		C1128.9,524.4,1128.9,556.8,1128.9,589.1z"/>
	<path class="st0" d="M792.6,612.8c0-23.9,0-47.7,0-71.6c0-12.7,9-23.1,20.9-24.4c12.7-1.4,23.6,6.1,26.7,18.5
		c0.5,2,0.6,3.9,0.6,5.9c0,47.7,0,95.4,0,143.2c0,14.1-10.5,24.6-24.3,24.5c-13.5,0-23.9-10.6-23.9-24.5
		C792.6,660.5,792.6,636.6,792.6,612.8z"/>
	<path class="st0" d="M984.6,636.5c0-15.9,0-31.7,0-47.6c0-12.4,8.9-22.8,20.7-24.2c12.5-1.5,23.4,5.8,26.8,17.9
		c0.6,2.1,0.7,4.2,0.7,6.3c0,31.8,0,63.7,0,95.5c0,13.8-10.5,24.3-24.1,24.3c-13.6,0-24-10.5-24.1-24.3
		C984.6,668.5,984.6,652.5,984.6,636.5z"/>
</g>
</svg>
