<?xml version="1.0" encoding="utf-8"?>
<!-- Generator: Adobe Illustrator 26.3.1, SVG Export Plug-In . SVG Version: 6.00 Build 0)  -->
<svg version="1.1" id="Livello_1" xmlns="http://www.w3.org/2000/svg" xmlns:xlink="http://www.w3.org/1999/xlink" x="0px" y="0px"
	 width="16px" height="16px" viewBox="0 0 16 16" style="enable-background:new 0 0 16 16;" xml:space="preserve">
<style type="text/css">
	.st0{fill:#FFAA28;}
</style>
<g>
	<path class="st0" d="M7.1,8c0,1.9,0,3.8,0,5.7c0,0.6-0.4,1-1,1c-0.4,0-0.8-0.4-0.9-0.9c0,0,0-0.1,0-0.1c0-3.8,0-7.6,0-11.4
		c0-0.4,0.2-0.8,0.6-0.9c0.6-0.2,1.3,0.2,1.3,0.9C7.1,4.2,7.1,6.1,7.1,8z"/>
	<path class="st0" d="M14.7,9.9c0,1.3,0,2.5,0,3.8c0,0.4-0.2,0.8-0.6,0.9c-0.4,0.1-0.8,0.1-1.1-0.2c-0.2-0.2-0.3-0.4-0.3-0.6
		c0-2.6,0-5.1,0-7.7c0-0.5,0.4-0.9,1-0.9c0.5,0,0.9,0.4,0.9,0.9C14.7,7.3,14.7,8.6,14.7,9.9z"/>
	<path class="st0" d="M1.3,10.9c0-0.9,0-1.9,0-2.8c0-0.5,0.4-0.9,0.8-1C2.7,7,3.1,7.3,3.2,7.8c0,0.1,0,0.2,0,0.2c0,1.9,0,3.8,0,5.7
		c0,0.6-0.4,1-1,1c-0.5,0-0.9-0.4-0.9-1C1.3,12.7,1.3,11.8,1.3,10.9z"/>
	<path class="st0" d="M9,11.8c0-0.6,0-1.3,0-1.9c0-0.5,0.4-0.9,0.8-1c0.5-0.1,0.9,0.2,1.1,0.7c0,0.1,0,0.2,0,0.3c0,1.3,0,2.5,0,3.8
		c0,0.5-0.4,1-1,1s-1-0.4-1-1C9,13.1,9,12.4,9,11.8z"/>
</g>
</svg>
