<svg xmlns="http://www.w3.org/2000/svg" width="14.726" height="18.331" viewBox="0 0 14.726 18.331">
  <g id="Group_2198" data-name="Group 2198" transform="translate(-3.639 -1.836)" opacity="0.7">
    <path id="Vector" d="M6.608,1.7a.576.576,0,0,1-.174-.028,10.268,10.268,0,0,0-5.619,0,.64.64,0,0,1-.788-.44A.633.633,0,0,1,.466.44a11.585,11.585,0,0,1,6.325,0,.637.637,0,0,1,.44.788A.663.663,0,0,1,6.608,1.7Z" transform="translate(7.381 18.471)" fill="#ffaa28"/>
    <path id="Vector-2" data-name="Vector" d="M13.97,3.994A7.256,7.256,0,0,0,9.038.181,7.405,7.405,0,0,0,2.759,1.629,7.308,7.308,0,0,0,0,7.377a7.934,7.934,0,0,0,3.566,6.3v.761a1.23,1.23,0,0,0,.293.972,1.581,1.581,0,0,0,1.173.367h4.7a1.531,1.531,0,0,0,1.127-.394,1.371,1.371,0,0,0,.33-1.063v-.642A7.682,7.682,0,0,0,13.97,3.994ZM8.938,8.816l-.981,1.7a.693.693,0,0,1-.6.348.629.629,0,0,1-.339-.092.692.692,0,0,1-.257-.935l.779-1.357h-.77a1.1,1.1,0,0,1-.99-1.714l.981-1.705a.686.686,0,1,1,1.192.678L7.178,7.1h.77a1.1,1.1,0,0,1,.99,1.714Z" transform="translate(3.639 1.836)" fill="#ffaa28"/>
  </g>
</svg>
