<svg xmlns="http://www.w3.org/2000/svg" width="30" height="30" viewBox="0 0 30 30">
  <g id="Group_2110" data-name="Group 2110" transform="translate(14307 19732)">
    <g id="Ellipse_6" data-name="Ellipse 6" transform="translate(-14307 -19732)" fill="none" stroke="#5994f0" stroke-width="1" opacity="0.2">
      <circle cx="15" cy="15" r="15" stroke="none"/>
      <circle cx="15" cy="15" r="14.5" fill="none"/>
    </g>
    <g id="_1161953_instagram_icon_1_" data-name="1161953_instagram_icon (1)" transform="translate(-14302.4 -19728.801)" opacity="1">
      <path id="Path_5825" data-name="Path 5825" d="M19.013,16.7a3.613,3.613,0,1,0,3.613,3.613A3.62,3.62,0,0,0,19.013,16.7Zm0,5.927a2.315,2.315,0,1,1,2.315-2.315A2.325,2.325,0,0,1,19.013,22.627Z" transform="translate(-8.613 -8.541)" fill="#fff"/>
      <circle id="Ellipse_302" data-name="Ellipse 302" cx="0.819" cy="0.819" r="0.819" transform="translate(13.335 7.256)" fill="#fff"/>
      <path id="Path_5826" data-name="Path 5826" d="M16.271,5.957A4.02,4.02,0,0,0,13.307,4.8H7.493A3.867,3.867,0,0,0,3.4,8.893v5.786A4.061,4.061,0,0,0,4.585,17.7a4.119,4.119,0,0,0,2.935,1.1h5.758a4.168,4.168,0,0,0,2.964-1.1A4.041,4.041,0,0,0,17.4,14.707V8.893A4.046,4.046,0,0,0,16.271,5.957Zm-.113,8.75a2.758,2.758,0,0,1-.819,2.06,2.918,2.918,0,0,1-2.06.734H7.521a2.918,2.918,0,0,1-2.06-.734A2.837,2.837,0,0,1,4.7,14.679V8.893a2.814,2.814,0,0,1,.762-2.06A2.87,2.87,0,0,1,7.521,6.1h5.815a2.814,2.814,0,0,1,2.06.762,2.913,2.913,0,0,1,.762,2.032v5.815Z" transform="translate(0)" fill="#fff"/>
    </g>
  </g>
</svg>
