<svg xmlns="http://www.w3.org/2000/svg" width="15.483" height="18.43" viewBox="0 0 15.483 18.43">
  <path id="Vector" d="M13.741,2.033,8.7.144a3.19,3.19,0,0,0-1.9,0L1.76,2.033A2.918,2.918,0,0,0,0,4.572V12A3.044,3.044,0,0,0,1.082,14.16l5.042,3.767a2.859,2.859,0,0,0,3.236,0L14.4,14.16A3.061,3.061,0,0,0,15.483,12V4.572A2.9,2.9,0,0,0,13.741,2.033ZM10.936,7.166,6.994,11.108a.686.686,0,0,1-.972,0L4.556,9.623a.687.687,0,0,1,.972-.972l.99.99L9.973,6.185a.687.687,0,1,1,.962.981Z" fill="#ffaa28" opacity="0.7"/>
</svg>
