<svg xmlns="http://www.w3.org/2000/svg" width="20" height="20" viewBox="0 0 20 20">
  <path id="iconmonstr-gear-1" d="M20,11.347V8.653c-1.376-.489-2.245-.627-2.683-1.682h0c-.439-1.059.083-1.778.706-3.089l-1.9-1.9c-1.3.618-2.028,1.146-3.089.706h0c-1.057-.438-1.2-1.313-1.682-2.683H8.653c-.485,1.362-.624,2.243-1.682,2.683h0c-1.059.44-1.777-.082-3.089-.706l-1.9,1.9C2.6,5.187,3.122,5.909,2.682,6.97S1.362,8.168,0,8.653v2.693c1.36.483,2.243.624,2.683,1.683s-.1,1.8-.706,3.089l1.9,1.9c1.3-.619,2.028-1.146,3.089-.706h0c1.058.438,1.2,1.316,1.682,2.683h2.693c.485-1.363.625-2.242,1.689-2.685h0c1.052-.437,1.767.084,3.082.709l1.9-1.9c-.62-1.3-1.146-2.028-.707-3.088s1.323-1.2,2.684-1.684ZM10,13.333A3.333,3.333,0,1,1,13.333,10,3.333,3.333,0,0,1,10,13.333Z" fill="#fff" opacity="0.5"/>
</svg>
