<svg xmlns="http://www.w3.org/2000/svg" width="18.202" height="18.125" viewBox="0 0 18.202 18.125">
  <g id="Group_2201" data-name="Group 2201" transform="translate(-1.896 -2.042)" opacity="0.7">
    <path id="Vector" d="M9.854,1.375H.688A.693.693,0,0,1,0,.688.693.693,0,0,1,.688,0H9.854a.693.693,0,0,1,.688.688A.693.693,0,0,1,9.854,1.375Z" transform="translate(5.729 18.792)" fill="#ffaa28"/>
    <path id="Vector-2" data-name="Vector" d="M16.758,3.018,13.092,5.64A.923.923,0,0,1,11.7,5.218L9.966.6A.913.913,0,0,0,8.252.6L6.51,5.209a.9.9,0,0,1-1.384.422L1.459,3.009a.924.924,0,0,0-1.4,1.063L3.87,14.751a.909.909,0,0,0,.862.605h8.736a.922.922,0,0,0,.862-.605L18.143,4.072A.909.909,0,0,0,16.758,3.018ZM11.4,11.479H6.813a.688.688,0,0,1,0-1.375H11.4a.688.688,0,0,1,0,1.375Z" transform="translate(1.896 2.042)" fill="#ffaa28"/>
  </g>
</svg>
