<svg xmlns="http://www.w3.org/2000/svg" width="18.333" height="18.333" viewBox="0 0 18.333 18.333">
  <path id="Vector" d="M9.167,0a9.167,9.167,0,1,0,9.167,9.167A9.17,9.17,0,0,0,9.167,0Zm4.758,12.778a.711.711,0,0,1-.147.22l-1.549,1.549a.686.686,0,0,1-.972,0,.692.692,0,0,1,0-.972l.376-.376H6.508a2.158,2.158,0,0,1-2.154-2.154V9.423a.688.688,0,0,1,1.375,0v1.623a.779.779,0,0,0,.779.779h5.124l-.376-.376a.687.687,0,0,1,.972-.972l1.549,1.549a.711.711,0,0,1,.147.22A.67.67,0,0,1,13.924,12.778Zm.055-3.868a.687.687,0,0,1-1.375,0V7.287a.779.779,0,0,0-.779-.779H6.7l.376.367a.692.692,0,0,1,0,.972.686.686,0,0,1-.972,0L4.556,6.3a.711.711,0,0,1-.147-.22.648.648,0,0,1,0-.523.753.753,0,0,1,.147-.229L6.105,3.777a.687.687,0,1,1,.972.972L6.7,5.124h5.124a2.158,2.158,0,0,1,2.154,2.154Z" fill="#ffaa28"/>
</svg>
