<svg xmlns="http://www.w3.org/2000/svg" width="22" height="22" viewBox="0 0 22 22">
  <g id="vuesax_bold_profile-2user" data-name="vuesax/bold/profile-2user" transform="translate(-172 -252)">
    <g id="profile-2user" transform="translate(172 252)">
      <path id="Vector" d="M4.354,0a4.35,4.35,0,0,0-.11,8.7.739.739,0,0,1,.2,0H4.51A4.351,4.351,0,0,0,4.354,0Z" transform="translate(3.896 1.833)" fill="#ffaa28"/>
      <path id="Vector-2" data-name="Vector" d="M11.11,1.279a9.1,9.1,0,0,0-9.3,0A3.618,3.618,0,0,0,0,4.24,3.588,3.588,0,0,0,1.8,7.182,8.469,8.469,0,0,0,6.453,8.475,8.469,8.469,0,0,0,11.11,7.182a3.617,3.617,0,0,0,1.8-2.961A3.609,3.609,0,0,0,11.11,1.279Z" transform="translate(1.797 11.692)" fill="#ffaa28"/>
      <path id="Vector-3" data-name="Vector" d="M5.39,3.01A3.281,3.281,0,0,1,2.521,6.557H2.475a.429.429,0,0,0-.156.018A3.289,3.289,0,0,1,0,5.815,4.2,4.2,0,0,0,1.375,2.332a4.254,4.254,0,0,0-.706-2A3.291,3.291,0,0,1,5.39,3.01Z" transform="translate(12.934 3.719)" fill="#ffaa28"/>
      <path id="Vector-4" data-name="Vector" d="M7.333,3.75A2.792,2.792,0,0,1,5.738,5.931a6.47,6.47,0,0,1-3.218.715A3.272,3.272,0,0,0,3.639,4.52a3.612,3.612,0,0,0-1.531-3.1A7.567,7.567,0,0,0,0,.266,7.164,7.164,0,0,1,6.142,1.339,2.785,2.785,0,0,1,7.333,3.75Z" transform="translate(12.824 11.458)" fill="#ffaa28"/>
      <path id="Vector-5" data-name="Vector" d="M0,0H22V22H0Z" transform="translate(22 22) rotate(180)" fill="none" opacity="0"/>
    </g>
  </g>
</svg>
