<svg xmlns="http://www.w3.org/2000/svg" width="22" height="22" viewBox="0 0 22 22">
  <g id="vuesax_bold_monitor" data-name="vuesax/bold/monitor" transform="translate(-424 -190)">
    <g id="monitor" transform="translate(424 190)">
      <path id="Vector" d="M14.263,0H4.043A4.049,4.049,0,0,0,0,4.043v6.142a4.043,4.043,0,0,0,4.043,4.043h3.52a.919.919,0,0,1,.917.917v.889a.919.919,0,0,1-.917.917H5.344a.692.692,0,0,0,0,1.384H13a.688.688,0,0,0,0-1.375H10.78a.919.919,0,0,1-.917-.917v-.889a.919.919,0,0,1,.917-.917h3.492a4.043,4.043,0,0,0,4.043-4.043V4.052A4.065,4.065,0,0,0,14.263,0Z" transform="translate(1.833 1.833)" fill="#ffaa28"/>
      <path id="Vector-2" data-name="Vector" d="M0,0H22V22H0Z" transform="translate(22 22) rotate(180)" fill="none" opacity="0"/>
    </g>
  </g>
</svg>
