<svg xmlns="http://www.w3.org/2000/svg" width="22" height="22" viewBox="0 0 22 22">
  <g id="vuesax_bold_home-trend-up" data-name="vuesax/bold/home-trend-up" transform="translate(-428 -188)">
    <g id="home-trend-up" transform="translate(428 188)">
      <path id="Vector" d="M16.546,4.416,11.266.722A4.448,4.448,0,0,0,6.233.841L1.641,4.425A4.723,4.723,0,0,0,0,7.762v6.325a4.245,4.245,0,0,0,4.235,4.244h9.882A4.237,4.237,0,0,0,18.352,14.1V7.881A4.678,4.678,0,0,0,16.546,4.416Zm-2.9,6.032a.642.642,0,1,1-1.283,0v-.165L9.873,12.776a.625.625,0,0,1-.972-.1l-.935-1.393L5.784,13.464a.616.616,0,0,1-.449.183.639.639,0,0,1-.449-.183.647.647,0,0,1,0-.908L7.618,9.825a.63.63,0,0,1,.513-.183.609.609,0,0,1,.467.284l.935,1.393,1.934-1.934H11.3a.642.642,0,1,1,0-1.283h1.705a.786.786,0,0,1,.248.046A.648.648,0,0,1,13.6,8.5a.592.592,0,0,1,.046.247Z" transform="translate(1.824 1.835)" fill="#ffaa28"/>
      <path id="Vector-2" data-name="Vector" d="M0,0H22V22H0Z" transform="translate(22 22) rotate(180)" fill="none" opacity="0"/>
    </g>
  </g>
</svg>
