<svg xmlns="http://www.w3.org/2000/svg" width="30" height="30" viewBox="0 0 30 30">
  <g id="Group_245" data-name="Group 245" transform="translate(-1620 -3798)">
    <g id="Ellipse_4" data-name="Ellipse 4" transform="translate(1620 3798)" fill="none" stroke="#5994f0" stroke-width="1" opacity="0.2">
      <circle cx="15" cy="15" r="15" stroke="none"/>
      <circle cx="15" cy="15" r="14.5" fill="none"/>
    </g>
    <path id="Path_5495" data-name="Path 5495" d="M4.717,12.219c5.158,0,7.98-4.509,7.98-8.418,0-.127,0-.256-.008-.383a5.881,5.881,0,0,0,1.4-1.532,5.307,5.307,0,0,1-1.61.465A2.953,2.953,0,0,0,13.711.714a5.464,5.464,0,0,1-1.781.718A2.767,2.767,0,0,0,10.339.539,2.682,2.682,0,0,0,8.561.85,2.905,2.905,0,0,0,7.328,2.238,3.113,3.113,0,0,0,7.149,4.13a7.644,7.644,0,0,1-3.2-.9A8.062,8.062,0,0,1,1.369,1.041,3.1,3.1,0,0,0,1.063,3.2,2.968,2.968,0,0,0,2.237,4.989,2.7,2.7,0,0,1,.966,4.62v.037A3.059,3.059,0,0,0,1.6,6.532,2.782,2.782,0,0,0,3.217,7.558a2.647,2.647,0,0,1-1.265.051,2.965,2.965,0,0,0,1,1.471,2.717,2.717,0,0,0,1.622.586,5.442,5.442,0,0,1-3.484,1.268,5.343,5.343,0,0,1-.67-.043A7.659,7.659,0,0,0,4.717,12.219Z" transform="translate(1627.553 3806.875)" fill="#fefefe" opacity="0.5"/>
  </g>
</svg>
