<svg xmlns="http://www.w3.org/2000/svg" width="24" height="24" viewBox="0 0 24 24">
  <g id="vuesax_bold_wallet" data-name="vuesax/bold/wallet" transform="translate(-236 -444)">
    <g id="wallet">
      <path id="Vector" d="M0,0H24V24H0Z" transform="translate(236 444)" fill="none" opacity="0"/>
      <path id="Vector-2" data-name="Vector" d="M3,.5v1a.5.5,0,0,1-.49.5H1.055A1.035,1.035,0,0,1,0,1.09a1,1,0,0,1,.29-.8A.951.951,0,0,1,.995,0H2.5A.5.5,0,0,1,3,.5Z" transform="translate(254.445 457.14)" fill="#0e1837"/>
      <path id="Vector-3" data-name="Vector" d="M15.54,5.8A2.02,2.02,0,0,0,15,7.78,2.18,2.18,0,0,0,17.13,9.3H18a1,1,0,0,1,1,1v.19a3.768,3.768,0,0,1-3.76,3.76H3.76A3.768,3.768,0,0,1,0,10.49V3.76a3.736,3.736,0,0,1,1.5-3A3.706,3.706,0,0,1,3.76,0H15.24A3.768,3.768,0,0,1,19,3.76V4.2a1,1,0,0,1-1,1H16.98A1.993,1.993,0,0,0,15.54,5.8Z" transform="translate(238.45 450.89)" fill="#0e1837"/>
      <path id="Vector-4" data-name="Vector" d="M8.519,2.82a.412.412,0,0,1-.34.69L.5,3.5a.5.5,0,0,1-.35-.85l1.62-1.63a3.525,3.525,0,0,1,4.96,0l1.75,1.77C8.489,2.8,8.509,2.81,8.519,2.82Z" transform="translate(243.681 446)" fill="#0e1837"/>
    </g>
  </g>
</svg>
