<svg xmlns="http://www.w3.org/2000/svg" width="42" height="42" viewBox="0 0 42 42">
  <g id="wallet-money" transform="translate(-108 -380)" opacity="0.2">
    <path id="Vector" d="M33.2,22.015c-.42,4.673-3.8,7.735-8.7,7.735H8.75A8.753,8.753,0,0,1,0,21V8.75C0,3.99,2.87.665,7.333.1A9.314,9.314,0,0,1,8.75,0H24.5a8,8,0,0,1,1.313.087A8.05,8.05,0,0,1,33.2,7.735a.859.859,0,0,1-.875.927H29.61a6.024,6.024,0,0,0-4.358,1.8A6.156,6.156,0,0,0,23.415,15.4a6.379,6.379,0,0,0,6.405,5.688h2.5A.859.859,0,0,1,33.2,22.015Z" transform="translate(111.5 386.125)" fill="#828292"/>
    <path id="Vector-2" data-name="Vector" d="M0,0H42V42H0Z" transform="translate(150 422) rotate(180)" fill="none" opacity="0"/>
    <path id="Vector-3" data-name="Vector" d="M8.976,1.785V5.39a1.8,1.8,0,0,1-1.75,1.785H3.8A3.731,3.731,0,0,1,.016,3.9,3.515,3.515,0,0,1,1.066,1.05,3.488,3.488,0,0,1,3.586,0h3.64A1.8,1.8,0,0,1,8.976,1.785Z" transform="translate(137.524 397.412)" fill="#828292"/>
  </g>
</svg>
