<svg xmlns="http://www.w3.org/2000/svg" width="30" height="30" viewBox="0 0 30 30">
  <g id="Group_2107" data-name="Group 2107" transform="translate(14383 19732)">
    <g id="Ellipse_5" data-name="Ellipse 5" transform="translate(-14383 -19732)" fill="none" stroke="#5994f0" stroke-width="1" opacity="0.2">
      <circle cx="15" cy="15" r="15" stroke="none"/>
      <circle cx="15" cy="15" r="14.5" fill="none"/>
    </g>
    <g id="_317714_video_youtube_icon" data-name="317714_video_youtube_icon" transform="translate(-14374.999 -19725.998)" opacity="1">
      <path id="Subtraction_2" data-name="Subtraction 2" d="M7,10.5c-.033,0-3.642-.035-4.76-.149-.056-.011-.124-.021-.19-.028A2.017,2.017,0,0,1,.7,9.717,3.359,3.359,0,0,1,.141,8.234v0A24.011,24.011,0,0,1,0,5.818V4.684A24.011,24.011,0,0,1,.141,2.271v0A3.368,3.368,0,0,1,.7.784,1.861,1.861,0,0,1,2.016.163L2.073.158l.026,0C4.036,0,6.968,0,7,0H7c.029,0,2.959,0,4.9.154l.023,0,.06.006A1.863,1.863,0,0,1,13.3.784a3.364,3.364,0,0,1,.556,1.484C13.875,2.4,14,3.546,14,4.684V5.818c0,1.139-.125,2.288-.138,2.414A3.436,3.436,0,0,1,13.3,9.717a1.875,1.875,0,0,1-1.317.621l-.031,0-.056.007C9.973,10.5,7.029,10.5,7,10.5ZM5.252,2.627h0V7.88L9.629,5.252,5.252,2.627Z" transform="translate(-0.001 3.998)" fill="#fff"/>
    </g>
  </g>
</svg>
